<?xml version="1.0" encoding="iso-8859-1"?>
<!-- Generator: Adobe Illustrator 19.0.0, SVG Export Plug-In . SVG Version: 6.00 Build 0)  -->
<svg version="1.1" id="Layer_1" xmlns="http://www.w3.org/2000/svg" xmlns:xlink="http://www.w3.org/1999/xlink" x="0px" y="0px"
	 viewBox="0 0 512.006 512.006" style="enable-background:new 0 0 512.006 512.006;" xml:space="preserve">
<rect x="437.137" y="344.538" style="fill:#E2AF66;" width="18.208" height="167.468"/>
<rect x="56.957" y="444.077" style="fill:#F9C573;" width="20.881" height="67.921"/>
<g>
	<path style="fill:#E2AF66;" d="M485.088,143.069c0,14.081-30.869,26.706-79.607,35.227c-19.122,12.479-36.809,19.762-45.828,19.762
		c-1.408,0-18.075-3.432-19.422-3.237l-21.85-57.093c-1.202-12.442,53.524-24.29,48.875-35.276
		C437.528,110.367,485.088,125.589,485.088,143.069z"/>
	<path style="fill:#E2AF66;" d="M145.891,102.452c-4.649,10.986,18.314,22.833,17.112,35.276l9.711,59.521
		c-1.36-0.206,21.207,68.834-10.801,19.545c-4.913-7.564-38.598-32.872-54.246-38.497c-48.725-8.521-79.583-21.146-79.583-35.227
		C28.083,125.589,75.631,110.367,145.891,102.452z"/>
</g>
<g>
	<path style="fill:#F9C573;" d="M414.682,349.173L414.682,349.173v26.706c0,17.43,14.131,31.561,31.561,31.561l0,0v-26.706
		C446.244,363.302,432.113,349.173,414.682,349.173z"/>
	<path style="fill:#F9C573;" d="M414.682,402.584L414.682,402.584v26.706c0,17.43,14.131,31.561,31.561,31.561l0,0v-26.706
		C446.244,416.714,432.113,402.584,414.682,402.584z"/>
	<path style="fill:#F9C573;" d="M414.682,295.762L414.682,295.762v26.706c0,17.43,14.131,31.561,31.561,31.561l0,0v-26.706
		C446.244,309.891,432.113,295.762,414.682,295.762z"/>
	<path style="fill:#F9C573;" d="M477.803,349.173L477.803,349.173v26.706c0,17.43-14.131,31.561-31.561,31.561l0,0v-26.706
		C446.244,363.302,460.373,349.173,477.803,349.173z"/>
	<path style="fill:#F9C573;" d="M477.803,402.584L477.803,402.584v26.706c0,17.43-14.131,31.561-31.561,31.561l0,0v-26.706
		C446.244,416.714,460.373,402.584,477.803,402.584z"/>
	<path style="fill:#F9C573;" d="M477.803,295.762L477.803,295.762v26.706c0,17.43-14.131,31.561-31.561,31.561l0,0v-26.706
		C446.244,309.891,460.373,295.762,477.803,295.762z"/>
</g>
<g>
	<path style="fill:#E0B394;" d="M129.831,224.119c-15.052-0.668-27.033-13.086-27.033-28.296c0-15.635,12.673-28.32,28.32-28.32
		c1.408,0,2.792,0.097,4.151,0.303L129.831,224.119z"/>
	<path style="fill:#E0B394;" d="M383.316,224.119c15.052-0.668,27.045-13.086,27.045-28.296c0-15.635-12.685-28.32-28.332-28.32
		c-1.408,0-2.804,0.109-4.152,0.303L383.316,224.119z"/>
</g>
<path style="fill:#F9C573;" d="M313.824,326.729H199.343c-41.462,0-75.074,33.611-75.074,75.074v110.198h264.628V401.803
	C388.897,360.341,355.286,326.729,313.824,326.729z"/>
<rect x="209.242" y="308.522" style="fill:#F76B4F;" width="94.683" height="113.632"/>
<path style="fill:#E2AF66;" d="M245.6,326.729h-46.256c-41.462,0-75.074,33.611-75.074,75.074v110.198h46.256V401.803
	C170.526,360.341,204.137,326.729,245.6,326.729z"/>
<path style="fill:#E0B394;" d="M303.927,308.522v51.991l-6.373,4.637c-24.436,17.747-57.514,17.747-81.95,0l-6.361-4.625v-52.003
	H303.927z"/>
<path style="fill:#F7CBA4;" d="M347.384,310.331l-49.83,36.198c-24.436,17.759-57.514,17.759-81.95,0l-49.818-36.198
	c-26.341-19.131-40.58-50.765-37.448-83.163l8.643-89.439c0.473-4.904,1.238-9.723,2.282-14.421
	c9.298-42.207,40.544-75.662,80.724-88.492l36.477,15.805h0.243l36.477-15.805c16.545,5.28,31.573,14.069,44.173,25.516
	c18.002,16.351,31.076,38.14,36.538,62.977c1.044,4.698,1.809,9.517,2.282,14.421l8.643,89.439
	C387.951,259.566,373.714,291.2,347.384,310.331z"/>
<path style="fill:#E8BA97;" d="M159.343,244.792c-0.838,14.166,3.775,28.102,12.904,38.966l52.079,63.996
	c2.719,3.241,5.802,5.96,9.141,8.133c-6.264-2.185-12.285-5.317-17.856-9.359l-49.83-36.198
	c-26.329-19.131-40.568-50.765-37.436-83.164l8.631-89.439c5.9-60.998,56.713-107.684,117.808-108.57
	c-37.631,0.91-80.242,36.38-82.463,74.156L159.343,244.792z"/>
<g>
	<path style="fill:#999999;" d="M83.914,24.218c-1.112-0.149-2.202-0.161-3.349-0.216c-1.124,0.01-2.238,0.157-3.396,0.254
		c-1.128,0.174-2.236,0.464-3.386,0.717c-1.117,0.317-2.192,0.76-3.313,1.164c-1.079,0.466-2.126,1.021-3.194,1.573
		c-1.004,0.631-2.011,1.29-3.004,1.986c-0.935,0.755-1.863,1.54-2.774,2.356c-0.26,0.269-0.511,0.557-0.771,0.83
		c-0.268-0.283-0.538-0.567-0.806-0.846c-0.914-0.815-1.84-1.605-2.776-2.359c-0.994-0.696-2-1.357-3.006-1.988
		c-1.071-0.551-2.116-1.109-3.196-1.574c-1.12-0.404-2.2-0.844-3.315-1.164c-1.151-0.255-2.261-0.54-3.388-0.716
		c-1.159-0.097-2.276-0.239-3.4-0.252c-1.143,0.058-2.247,0.067-3.343,0.222c-1.103,0.191-2.178,0.415-3.217,0.694
		c-1.048,0.375-2.056,0.75-3.019,1.226c0.961,0.573,1.875,1.045,2.752,1.517l2.498,1.542l2.261,1.623l2.039,1.693
		c0.64,0.585,1.241,1.19,1.833,1.754l1.64,1.806c0.488,0.648,0.966,1.271,1.445,1.866c0.437,0.646,0.844,1.293,1.278,1.889
		c0.356,0.675,0.739,1.3,1.101,1.925c0.306,0.671,0.63,1.31,0.942,1.943c0.25,0.674,0.527,1.316,0.787,1.957
		c0.187,0.679,0.435,1.316,0.635,1.968c0.13,0.679,0.346,1.316,0.488,1.974c0.087,0.674,0.25,1.321,0.346,1.982
		c0.05,0.67,0.147,1.329,0.21,1.992c0.012,0.671,0.034,1.338,0.079,2.005h18.206c0.038-0.668,0.069-1.335,0.072-2.007
		c0.061-0.664,0.165-1.321,0.205-1.993c0.095-0.662,0.265-1.307,0.344-1.983c0.146-0.658,0.354-1.299,0.486-1.977
		c0.203-0.651,0.444-1.292,0.632-1.97c0.262-0.64,0.533-1.288,0.787-1.959c0.306-0.639,0.639-1.272,0.941-1.947
		c0.365-0.625,0.747-1.254,1.103-1.928c0.436-0.596,0.842-1.245,1.279-1.891c0.481-0.592,0.957-1.22,1.447-1.867l1.642-1.806
		l1.837-1.753l2.043-1.691l2.255-1.617c0.767-0.46,1.557-1.011,2.445-1.532c0.94-0.476,1.88-0.946,2.816-1.515
		c-0.988-0.471-1.971-0.845-2.955-1.222C86.162,24.623,85.051,24.399,83.914,24.218z"/>
	<path style="fill:#999999;" d="M508.936,206.73c-1.022-0.28-2.132-0.505-3.27-0.686c-1.112-0.149-2.202-0.161-3.349-0.216
		c-1.124,0.01-2.238,0.157-3.396,0.255c-1.128,0.172-2.236,0.462-3.386,0.717c-1.118,0.316-2.192,0.76-3.313,1.164
		c-1.079,0.466-2.126,1.021-3.194,1.573c-1.004,0.631-2.011,1.29-3.004,1.986c-0.935,0.755-1.863,1.539-2.774,2.356
		c-0.26,0.269-0.511,0.557-0.771,0.83c-0.268-0.283-0.538-0.567-0.806-0.846c-0.914-0.815-1.84-1.604-2.776-2.357
		c-0.994-0.696-2.001-1.357-3.006-1.988c-1.071-0.551-2.116-1.109-3.196-1.574c-1.12-0.404-2.2-0.844-3.315-1.164
		c-1.151-0.255-2.262-0.54-3.388-0.716c-1.159-0.097-2.276-0.239-3.4-0.251c-1.143,0.057-2.247,0.067-3.343,0.222
		c-1.103,0.191-2.178,0.414-3.217,0.694c-1.048,0.375-2.056,0.751-3.019,1.226c0.961,0.573,1.875,1.045,2.752,1.517l2.498,1.542
		l2.261,1.623l2.039,1.695c0.64,0.585,1.242,1.188,1.833,1.754l1.64,1.806c0.488,0.649,0.966,1.272,1.445,1.866
		c0.437,0.646,0.844,1.293,1.278,1.889c0.356,0.675,0.739,1.3,1.101,1.925c0.306,0.671,0.63,1.31,0.942,1.943
		c0.25,0.674,0.527,1.316,0.787,1.957c0.187,0.679,0.435,1.316,0.635,1.968c0.13,0.679,0.346,1.316,0.488,1.975
		c0.087,0.674,0.25,1.321,0.347,1.981c0.05,0.67,0.147,1.329,0.21,1.992c0.012,0.671,0.034,1.339,0.079,2.007h18.206
		c0.038-0.669,0.069-1.335,0.072-2.007c0.061-0.664,0.165-1.321,0.205-1.993c0.095-0.662,0.265-1.307,0.344-1.984
		c0.146-0.658,0.354-1.299,0.486-1.977c0.203-0.651,0.444-1.292,0.632-1.97c0.262-0.641,0.533-1.288,0.787-1.959
		c0.306-0.637,0.639-1.271,0.941-1.947c0.365-0.624,0.747-1.253,1.103-1.928c0.436-0.596,0.842-1.245,1.279-1.891
		c0.479-0.592,0.957-1.219,1.447-1.867l1.642-1.806l1.837-1.753l2.043-1.691l2.255-1.617c0.767-0.461,1.557-1.011,2.445-1.533
		c0.94-0.475,1.88-0.946,2.816-1.514C510.903,207.482,509.919,207.108,508.936,206.73z"/>
</g>
<path style="fill:#E8BA97;" d="M373.895,123.307H139.262c9.298-42.207,40.544-75.662,80.724-88.492l36.477,15.805h0.243
	l36.477-15.805c16.545,5.28,31.573,14.069,44.173,25.516C355.359,76.682,368.432,98.471,373.895,123.307z"/>
<path style="fill:#F9C573;" d="M385.159,104.698h-257.15l25.188-86.526c4.236-14.567,20.296-22.117,34.22-16.084l25.528,11.059
	l43.518,18.864h0.243L325.74,2.088c13.923-6.033,29.995,1.517,34.232,16.084L385.159,104.698z"/>
<path style="fill:#E2AF66;" d="M212.946,13.147l-14.154,91.551h-70.782l25.188-86.526c4.236-14.567,20.296-22.117,34.22-16.084
	L212.946,13.147z"/>
<path style="fill:#F76B4F;" d="M388.899,397.415v114.579h-51.396v-93.542c0-26.026,13.377-50.219,35.421-64.045l0.243-0.194
	C382.988,365.903,388.899,380.967,388.899,397.415z"/>
<path style="fill:#E5624C;" d="M124.269,397.415v114.579h51.396v-93.542c0-26.026-13.377-50.219-35.421-64.045l-0.243-0.194
	C130.181,365.903,124.269,380.967,124.269,397.415z"/>
<rect x="209.242" y="474.958" style="fill:#E2AF66;" width="94.683" height="37.036"/>
<path style="fill:#808080;" d="M134.67,388.692c-0.006-1.134-0.011-2.26-0.017-3.378c-0.002-0.67-0.005-1.338-0.007-2.002
	c-0.03-0.555-0.062-1.107-0.092-1.657c-0.129-2.201-0.257-4.366-0.382-6.498c-0.284-4.262-0.56-8.378-0.823-12.332
	c-1.13-15.81-2.399-28.985-3.433-38.208c-0.495-4.612-1.004-8.235-1.299-10.705c-0.34-2.47-0.521-3.789-0.521-3.789
	s-0.181,1.317-0.521,3.789c-0.294,2.47-0.804,6.094-1.299,10.705c-1.033,9.223-2.303,22.399-3.432,38.208
	c-0.263,3.952-0.539,8.07-0.823,12.332c-0.125,2.13-0.252,4.297-0.382,6.498c-0.03,0.55-0.061,1.102-0.091,1.657l-0.006,0.103
	c-0.002,0.107,0.011-0.558,0-0.228l-0.022,0.206l-0.044,0.415l-0.089,0.833c-0.118,1.112-0.237,2.232-0.357,3.36l-0.09,0.847
	c-0.024,0.294-0.061,0.567-0.125,0.781l-0.325,1.392c-0.195,0.927-0.392,1.86-0.59,2.798c-0.199,0.94-0.595,1.952-0.878,2.93
	c-0.331,0.98-0.566,1.992-0.966,2.956c-0.41,0.958-0.822,1.92-1.236,2.888l-0.6,1.457l-0.75,1.397
	c-0.495,0.932-0.993,1.869-1.492,2.81c-0.523,0.926-1.174,1.786-1.75,2.688c-1.095,1.848-2.571,3.445-3.894,5.158l-0.501,0.64
	l-0.568,0.585l-1.137,1.173l-1.133,1.18c-0.373,0.398-0.747,0.798-1.181,1.135c-1.687,1.4-3.271,2.932-5.144,4.114
	c-0.846,0.556-1.622,1.214-2.487,1.742l-8.27-116.343l-8.773,123.416c-3.776,0.909-7.7,1.142-11.593,1.298l-0.177-0.01l-0.494-0.023
	l-0.987-0.045l-1.974-0.09l-1.974-0.09c-0.637-0.038-1.044-0.161-1.577-0.232c-1.006-0.165-2.014-0.314-3.026-0.45
	c-0.541-0.095-1.105-0.234-1.674-0.382l-8.768-123.393l-8.268,116.318c-0.861-0.528-1.644-1.169-2.476-1.735
	c-1.873-1.182-3.457-2.713-5.143-4.111c-0.436-0.337-0.808-0.736-1.181-1.134l-1.133-1.18l-1.137-1.173l-0.568-0.585l-0.501-0.638
	c-1.316-1.716-2.792-3.313-3.888-5.159c-0.575-0.902-1.226-1.76-1.75-2.685c-0.5-0.941-0.998-1.877-1.493-2.809l-0.75-1.396
	l-0.595-1.458c-0.414-0.966-0.827-1.929-1.236-2.885c-0.401-0.963-0.636-1.975-0.967-2.955c-0.286-0.991-0.674-1.958-0.885-2.959
	c-0.205-1.005-0.409-2.004-0.613-2.997c-0.205-0.995-0.461-1.981-0.522-2.986c-0.114-1.003-0.226-1.999-0.339-2.987
	c-0.055-0.504-0.124-0.976-0.168-1.502c-0.03-0.555-0.062-1.107-0.092-1.657c-0.129-2.201-0.256-4.366-0.38-6.498
	c-0.285-4.262-0.56-8.378-0.824-12.332c-0.575-7.905-1.168-15.152-1.758-21.574c-0.595-6.424-1.165-12.022-1.689-16.634
	c-0.498-4.612-1.009-8.235-1.306-10.705c-0.341-2.47-0.523-3.789-0.523-3.789s-0.182,1.317-0.523,3.789
	c-0.297,2.47-0.808,6.094-1.306,10.705c-0.524,4.612-1.095,10.211-1.689,16.634c-0.591,6.423-1.182,13.67-1.759,21.574
	c-0.265,3.952-0.539,8.07-0.824,12.332c-0.125,2.13-0.251,4.297-0.38,6.498c-0.03,0.55-0.062,1.102-0.092,1.657
	c-0.005,0.608-0.01,1.219-0.013,1.832c0,1.241,0.001,2.491,0.001,3.75c-0.04,1.265,0.097,2.529,0.245,3.801
	c0.143,1.276,0.288,2.56,0.433,3.852c0.16,1.292,0.505,2.559,0.757,3.854c0.299,1.284,0.51,2.606,0.898,3.886
	c0.408,1.276,0.817,2.559,1.228,3.848l0.648,1.935l0.821,1.877c0.557,1.254,1.118,2.514,1.681,3.78
	c0.597,1.249,1.333,2.434,2.007,3.662c5.483,9.772,13.889,18.371,24.126,24.421c1.236,0.833,2.597,1.446,3.927,2.124
	c1.346,0.643,2.655,1.386,4.05,1.935c2.804,1.057,5.585,2.252,8.538,2.905c1.479,0.367,2.881,0.801,4.431,1.095l4.777,0.74
	c0.771,0.102,1.657,0.261,2.333,0.307l1.973,0.109l1.973,0.109l0.987,0.055l0.493,0.027l0.954,0.034
	c12.068-0.182,24.246-3.281,34.43-9.454c10.223-6.065,18.643-14.643,24.113-24.422c0.672-1.227,1.408-2.411,2.005-3.661
	c0.563-1.265,1.124-2.525,1.681-3.779l0.821-1.875l0.642-1.936c0.411-1.289,0.822-2.571,1.228-3.847
	c0.387-1.278,0.6-2.6,0.898-3.884c0.256-1.309,0.592-2.531,0.765-3.883c0.153-1.358,0.305-2.708,0.455-4.051
	c0.064-0.669,0.129-1.335,0.193-1.998c0.041-0.348,0.046-0.642,0.039-0.916L134.67,388.692z"/>
<path style="fill:#F2F2F2;" d="M304.1,272.505c0,0-0.692,1.699-2.149,4.382c-0.352,0.692-0.765,1.42-1.226,2.209
	c-0.546,0.777-1.177,1.566-1.857,2.452c-0.68,0.886-1.457,1.784-2.282,2.78c-0.291,0.376-0.607,0.692-0.947,1.02
	c-0.121,0.121-0.255,0.243-0.388,0.364c-0.473,0.437-0.959,0.898-1.457,1.36c-0.995,0.935-2.076,1.857-3.205,2.828
	c-1.19,0.874-2.464,1.699-3.775,2.598c-0.655,0.449-1.335,0.886-2.027,1.323c-0.692,0.413-1.432,0.753-2.185,1.129
	c-1.481,0.753-3.023,1.481-4.613,2.209c-3.277,1.117-6.689,2.428-10.33,2.974c-3.593,0.838-7.344,0.971-11.083,1.153
	c-3.739-0.182-7.49-0.303-11.083-1.141c-3.642-0.546-7.053-1.857-10.33-2.974c-1.59-0.716-3.132-1.445-4.625-2.197
	c-0.74-0.376-1.481-0.716-2.185-1.129c-0.68-0.449-1.36-0.874-2.015-1.323c-1.311-0.898-2.598-1.736-3.787-2.598
	c-1.129-0.971-2.197-1.906-3.205-2.828c-0.498-0.473-0.971-0.923-1.445-1.372c-0.17-0.158-0.34-0.316-0.51-0.473
	c-0.291-0.291-0.571-0.571-0.813-0.898c-0.789-0.959-1.554-1.845-2.221-2.719c-0.655-0.886-1.299-1.663-1.833-2.44
	c-0.486-0.825-0.935-1.578-1.311-2.27c-1.517-2.768-2.149-4.419-2.149-4.419s1.797,0.546,4.564,1.663
	c0.704,0.267,1.432,0.595,2.246,0.923c0.862,0.255,1.748,0.583,2.695,0.898c0.959,0.316,1.918,0.704,2.938,1.068
	c1.008,0.388,2.149,0.643,3.277,0.983c1.129,0.328,2.258,0.728,3.435,1.08c1.226,0.267,2.452,0.583,3.714,0.886
	c0.631,0.146,1.25,0.328,1.882,0.498c0.643,0.146,1.311,0.231,1.966,0.364c1.323,0.231,2.646,0.498,3.969,0.801
	c2.756,0.255,5.475,0.862,8.315,0.971c2.804,0.364,5.669,0.267,8.509,0.437c2.853-0.17,5.717-0.061,8.522-0.425
	c2.84-0.097,5.56-0.716,8.315-0.971c1.323-0.291,2.646-0.558,3.969-0.789c0.656-0.134,1.323-0.219,1.967-0.364
	c0.631-0.182,1.262-0.352,1.882-0.498c1.262-0.303,2.488-0.631,3.714-0.886c1.19-0.352,2.319-0.753,3.447-1.08
	c1.117-0.34,2.282-0.607,3.253-0.983c0.995-0.34,1.93-0.716,2.877-1.008c0.935-0.316,1.809-0.631,2.671-0.886
	c0.85-0.364,1.602-0.716,2.319-0.995C302.34,273.015,304.1,272.505,304.1,272.505z"/>
<g>
	<path style="fill:#4D4D4D;" d="M295.64,285.348c-0.121,0.121-0.255,0.243-0.388,0.364c-0.473,0.437-0.959,0.898-1.457,1.36
		c-0.995,0.935-2.076,1.857-3.205,2.828c-1.19,0.874-2.464,1.699-3.775,2.598c-0.655,0.449-1.335,0.886-2.027,1.323
		c-0.692,0.413-1.432,0.753-2.185,1.129c-1.481,0.753-3.023,1.481-4.613,2.209c-3.277,1.117-6.689,2.428-10.33,2.974
		c-3.593,0.838-7.344,0.971-11.083,1.153c-3.739-0.182-7.49-0.303-11.083-1.141c-3.642-0.546-7.053-1.857-10.33-2.974
		c-1.59-0.716-3.132-1.445-4.625-2.197c-0.74-0.376-1.481-0.716-2.185-1.129c-0.68-0.449-1.36-0.874-2.015-1.323
		c-1.311-0.898-2.598-1.736-3.787-2.598c-1.129-0.971-2.197-1.906-3.205-2.828c-0.498-0.473-0.971-0.923-1.445-1.372
		c-0.17-0.158-0.34-0.316-0.51-0.473c0.388,0.134,0.777,0.267,1.177,0.401c0.959,0.316,1.918,0.692,2.938,1.056
		c1.008,0.401,2.149,0.655,3.277,0.995c1.129,0.328,2.258,0.716,3.435,1.08c1.226,0.255,2.452,0.583,3.714,0.886
		c0.631,0.146,1.25,0.316,1.882,0.486c0.643,0.146,1.311,0.231,1.966,0.364c1.323,0.231,2.646,0.51,3.969,0.801
		c2.756,0.267,5.475,0.874,8.315,0.971c2.804,0.376,5.669,0.267,8.509,0.449c2.853-0.17,5.717-0.061,8.521-0.437
		c2.841-0.097,5.56-0.704,8.315-0.959c1.323-0.291,2.646-0.571,3.969-0.801c0.655-0.134,1.323-0.219,1.966-0.364
		c0.631-0.17,1.262-0.34,1.882-0.486c1.262-0.303,2.488-0.631,3.715-0.886c1.19-0.364,2.319-0.765,3.447-1.08
		c1.117-0.34,2.282-0.619,3.253-0.983c0.995-0.352,1.93-0.716,2.877-1.02C294.898,285.603,295.275,285.469,295.64,285.348z"/>
	<path style="fill:#4D4D4D;" d="M202.541,230.628c-5.028,0-9.104-4.076-9.104-9.104v-14.562c0-5.028,4.076-9.104,9.104-9.104
		s9.104,4.076,9.104,9.104v14.562C211.645,226.552,207.57,230.628,202.541,230.628z"/>
</g>
<g>
	<path style="fill:#666666;" d="M289.804,171.812c0,0,0.024-0.242,0.106-0.657c0.093-0.402,0.188-1.037,0.392-1.755
		c0.091-0.371,0.209-0.759,0.344-1.185c0.176-0.432,0.413-0.867,0.664-1.36c0.249-0.495,0.563-0.984,0.893-1.534
		c0.333-0.558,0.73-0.982,1.136-1.521c0.413-0.518,0.878-1.02,1.363-1.559c0.513-0.487,1.071-0.966,1.663-1.448
		c1.159-1.021,2.576-1.759,4.052-2.58c1.527-0.646,3.148-1.346,4.883-1.67c1.719-0.447,3.521-0.552,5.319-0.636
		c1.798,0.083,3.602,0.178,5.322,0.623c1.737,0.32,3.359,1.025,4.887,1.665c1.477,0.819,2.895,1.556,4.056,2.578
		c0.591,0.483,1.15,0.964,1.664,1.448c0.486,0.54,0.948,1.046,1.363,1.561c0.401,0.537,0.817,0.977,1.122,1.514
		c0.306,0.534,0.602,1.012,0.842,1.497c0.239,0.486,0.471,0.913,0.646,1.344c0.159,0.449,0.3,0.856,0.404,1.241
		c0.231,0.744,0.327,1.384,0.415,1.784c0.078,0.414,0.095,0.649,0.095,0.649s-0.251-0.006-0.676-0.047
		c-0.413-0.053-1.054-0.08-1.761-0.183c-0.367-0.038-0.74-0.106-1.152-0.16c-0.438-0.021-0.87-0.081-1.34-0.118
		c-0.921-0.097-1.883-0.242-2.94-0.283c-0.52-0.034-1.023-0.109-1.55-0.153c-0.545-0.007-1.083-0.035-1.617-0.075
		c-1.046-0.136-2.184-0.056-3.24-0.188c-1.111,0.04-2.174-0.096-3.275-0.062c-1.083-0.081-2.178,0.005-3.264-0.072
		c-1.086,0.074-2.181-0.021-3.267,0.058c-1.102-0.039-2.166,0.102-3.279,0.057c-1.057,0.131-2.197,0.05-3.243,0.187
		c-0.534,0.04-1.072,0.069-1.618,0.075c-0.527,0.044-1.028,0.124-1.55,0.155c-1.078,0.058-1.974,0.16-2.873,0.238
		c-0.472,0.036-0.914,0.07-1.323,0.101c-0.436,0.079-0.834,0.166-1.213,0.216c-0.734,0.13-1.377,0.16-1.784,0.212
		C290.046,171.812,289.804,171.812,289.804,171.812z"/>
	<path style="fill:#666666;" d="M181.726,171.812c0,0,0.024-0.242,0.106-0.657c0.093-0.402,0.188-1.037,0.392-1.755
		c0.091-0.371,0.209-0.759,0.344-1.185c0.176-0.432,0.413-0.867,0.664-1.36c0.249-0.495,0.563-0.984,0.893-1.534
		c0.333-0.558,0.73-0.982,1.136-1.521c0.413-0.518,0.878-1.02,1.363-1.559c0.513-0.487,1.071-0.966,1.663-1.448
		c1.159-1.021,2.576-1.759,4.052-2.58c1.527-0.646,3.148-1.346,4.883-1.67c1.719-0.447,3.521-0.552,5.319-0.636
		c1.798,0.083,3.602,0.178,5.322,0.623c1.737,0.32,3.359,1.025,4.887,1.665c1.477,0.819,2.895,1.556,4.056,2.578
		c0.591,0.483,1.15,0.964,1.664,1.448c0.486,0.54,0.948,1.046,1.363,1.561c0.401,0.537,0.817,0.977,1.122,1.514
		c0.306,0.534,0.602,1.012,0.842,1.497c0.239,0.486,0.471,0.913,0.646,1.344c0.159,0.449,0.3,0.856,0.404,1.241
		c0.231,0.744,0.327,1.384,0.415,1.784c0.078,0.414,0.095,0.649,0.095,0.649s-0.251-0.006-0.676-0.047
		c-0.413-0.053-1.054-0.08-1.761-0.183c-0.367-0.038-0.74-0.106-1.152-0.16c-0.438-0.021-0.87-0.081-1.34-0.118
		c-0.921-0.097-1.883-0.242-2.94-0.283c-0.52-0.034-1.023-0.109-1.55-0.153c-0.545-0.007-1.083-0.035-1.617-0.075
		c-1.046-0.136-2.184-0.056-3.24-0.188c-1.111,0.04-2.174-0.096-3.275-0.062c-1.083-0.081-2.178,0.005-3.264-0.072
		c-1.086,0.074-2.181-0.021-3.267,0.058c-1.102-0.039-2.166,0.102-3.279,0.057c-1.057,0.131-2.197,0.05-3.243,0.187
		c-0.534,0.04-1.072,0.069-1.618,0.075c-0.527,0.044-1.028,0.124-1.55,0.155c-1.078,0.058-1.974,0.16-2.873,0.238
		c-0.472,0.036-0.914,0.07-1.323,0.101c-0.436,0.079-0.834,0.166-1.213,0.216c-0.734,0.13-1.377,0.16-1.784,0.212
		C181.969,171.812,181.726,171.812,181.726,171.812z"/>
</g>
<path style="fill:#4D4D4D;" d="M310.618,230.628c-5.028,0-9.104-4.076-9.104-9.104v-14.562c0-5.028,4.076-9.104,9.104-9.104
	s9.104,4.076,9.104,9.104v14.562C319.722,226.552,315.646,230.628,310.618,230.628z"/>
<g>
	<path style="fill:#E0B394;" d="M270.539,190.575v43.093c0,7.709-6.25,13.96-13.96,13.96l0,0c-7.709,0-13.96-6.25-13.96-13.96
		v-43.093"/>
	<path style="fill:#E0B394;" d="M264.16,321.875h-16.994c-2.681,0-4.856-2.174-4.856-4.856c0-2.681,2.174-4.856,4.856-4.856h16.994
		c2.681,0,4.856,2.174,4.856,4.856C269.016,319.701,266.842,321.875,264.16,321.875z"/>
</g>
<g>
</g>
<g>
</g>
<g>
</g>
<g>
</g>
<g>
</g>
<g>
</g>
<g>
</g>
<g>
</g>
<g>
</g>
<g>
</g>
<g>
</g>
<g>
</g>
<g>
</g>
<g>
</g>
<g>
</g>
</svg>
